<svg width="24" height="24" viewBox="0 0 24 24" fill="none" xmlns="http://www.w3.org/2000/svg">
<path d="M15 5.25H6C5.60218 5.25 5.22064 5.40804 4.93934 5.68934C4.65804 5.97064 4.5 6.35218 4.5 6.75V21C4.5 21.1378 4.53796 21.2729 4.60972 21.3906C4.68149 21.5082 4.78428 21.6038 4.90681 21.6669C5.02934 21.7299 5.16688 21.758 5.30432 21.748C5.44177 21.7381 5.5738 21.6904 5.68594 21.6103L10.5 18.1716L15.315 21.6103C15.4271 21.6901 15.5591 21.7376 15.6964 21.7474C15.8337 21.7573 15.971 21.7291 16.0934 21.6661C16.2158 21.6031 16.3184 21.5076 16.3902 21.3901C16.4619 21.2726 16.4999 21.1377 16.5 21V6.75C16.5 6.35218 16.342 5.97064 16.0607 5.68934C15.7794 5.40804 15.3978 5.25 15 5.25Z" fill="black"/>
<path d="M18 2.25H8.25C8.05109 2.25 7.86032 2.32902 7.71967 2.46967C7.57902 2.61032 7.5 2.80109 7.5 3C7.5 3.19891 7.57902 3.38968 7.71967 3.53033C7.86032 3.67098 8.05109 3.75 8.25 3.75H18V18C18 18.1989 18.079 18.3897 18.2197 18.5303C18.3603 18.671 18.5511 18.75 18.75 18.75C18.9489 18.75 19.1397 18.671 19.2803 18.5303C19.421 18.3897 19.5 18.1989 19.5 18V3.75C19.5 3.35218 19.342 2.97064 19.0607 2.68934C18.7794 2.40804 18.3978 2.25 18 2.25Z" fill="black"/>
</svg>
