<svg width="24" height="24" viewBox="0 0 24 24" fill="none" xmlns="http://www.w3.org/2000/svg">
<path d="M22.2806 9.97021L14.7806 2.47021C14.6758 2.36526 14.5422 2.29375 14.3967 2.26473C14.2512 2.23572 14.1004 2.25049 13.9633 2.30719C13.8263 2.36389 13.7091 2.45996 13.6266 2.58326C13.5441 2.70657 13.5001 2.85156 13.5 2.9999V6.78271C11.0681 6.99083 8.38219 8.18146 6.1725 10.0555C3.51188 12.313 1.85532 15.2221 1.5075 18.2465C1.48032 18.4816 1.528 18.7193 1.64375 18.9258C1.75949 19.1322 1.93741 19.2969 2.15218 19.3964C2.36695 19.4959 2.60764 19.5251 2.83997 19.4799C3.07231 19.4347 3.28447 19.3174 3.44625 19.1446C4.4775 18.0468 8.14688 14.5752 13.5 14.2696V17.9999C13.5001 18.1482 13.5441 18.2932 13.6266 18.4165C13.7091 18.5398 13.8263 18.6359 13.9633 18.6926C14.1004 18.7493 14.2512 18.7641 14.3967 18.7351C14.5422 18.706 14.6758 18.6345 14.7806 18.5296L22.2806 11.0296C22.4209 10.889 22.4997 10.6985 22.4997 10.4999C22.4997 10.3013 22.4209 10.1108 22.2806 9.97021ZM15 16.1896V13.4999C15 13.301 14.921 13.1102 14.7803 12.9696C14.6397 12.8289 14.4489 12.7499 14.25 12.7499C11.6175 12.7499 9.05344 13.4371 6.62907 14.7936C5.39433 15.4876 4.24389 16.3219 3.20063 17.2799C3.74438 15.0449 5.115 12.9196 7.14282 11.1993C9.31969 9.35333 11.9766 8.2499 14.25 8.2499C14.4489 8.2499 14.6397 8.17088 14.7803 8.03023C14.921 7.88957 15 7.69881 15 7.4999V4.81115L20.6897 10.4999L15 16.1896Z" fill="black"/>
</svg>
