<svg width="24" height="24" viewBox="0 0 24 24" fill="none" xmlns="http://www.w3.org/2000/svg">
<path d="M21.9731 19.6874C20.6878 17.4315 18.6807 15.6737 16.275 14.6971C17.4713 13.7998 18.355 12.5489 18.8009 11.1215C19.2468 9.69412 19.2323 8.16262 18.7594 6.74395C18.2865 5.32527 17.3792 4.09135 16.1661 3.21697C14.9529 2.34259 13.4954 1.87207 12 1.87207C10.5046 1.87207 9.04708 2.34259 7.83394 3.21697C6.62079 4.09135 5.71352 5.32527 5.24063 6.74395C4.76774 8.16262 4.7532 9.69412 5.19909 11.1215C5.64497 12.5489 6.52867 13.7998 7.725 14.6971C5.3193 15.6737 3.31222 17.4315 2.02687 19.6874C1.94723 19.8154 1.89414 19.9582 1.87078 20.1072C1.84741 20.2562 1.85424 20.4084 1.89086 20.5547C1.92748 20.701 1.99314 20.8384 2.08393 20.9588C2.17473 21.0792 2.28881 21.1802 2.4194 21.2556C2.54998 21.3311 2.6944 21.3795 2.84407 21.398C2.99374 21.4165 3.14561 21.4047 3.29064 21.3634C3.43567 21.322 3.57091 21.252 3.68831 21.1573C3.80572 21.0626 3.90289 20.9453 3.97406 20.8124C5.67281 17.8761 8.67281 16.1249 12 16.1249C15.3272 16.1249 18.3272 17.8771 20.0259 20.8124C20.1802 21.0604 20.4248 21.2387 20.7081 21.3096C20.9914 21.3805 21.2912 21.3385 21.5441 21.1924C21.7969 21.0463 21.9831 20.8076 22.0631 20.5267C22.1432 20.2459 22.1109 19.9449 21.9731 19.6874ZM7.125 8.99988C7.125 8.0357 7.41091 7.09317 7.94658 6.29148C8.48225 5.48979 9.24363 4.86495 10.1344 4.49597C11.0252 4.12699 12.0054 4.03045 12.9511 4.21855C13.8967 4.40666 14.7654 4.87096 15.4471 5.55274C16.1289 6.23452 16.5932 7.10316 16.7813 8.04882C16.9694 8.99447 16.8729 9.97467 16.5039 10.8655C16.1349 11.7563 15.5101 12.5176 14.7084 13.0533C13.9067 13.589 12.9642 13.8749 12 13.8749C10.7075 13.8734 9.46841 13.3593 8.55449 12.4454C7.64058 11.5315 7.12648 10.2924 7.125 8.99988Z" fill="black"/>
</svg>
