<svg width="24" height="24" viewBox="0 0 24 24" fill="none" xmlns="http://www.w3.org/2000/svg">
<path d="M20.8256 9.92349L13.3256 2.42349C12.974 2.07198 12.4972 1.87451 12 1.87451C11.5028 1.87451 11.026 2.07198 10.6744 2.42349L3.17438 9.92349C2.99956 10.0972 2.86098 10.304 2.76667 10.5317C2.67236 10.7594 2.62421 11.0036 2.625 11.25V20.25C2.625 20.5484 2.74353 20.8346 2.95451 21.0455C3.16549 21.2565 3.45163 21.375 3.75 21.375H9.75C10.0484 21.375 10.3345 21.2565 10.5455 21.0455C10.7565 20.8346 10.875 20.5484 10.875 20.25V15.375H13.125V20.25C13.125 20.5484 13.2435 20.8346 13.4545 21.0455C13.6655 21.2565 13.9516 21.375 14.25 21.375H20.25C20.5484 21.375 20.8345 21.2565 21.0455 21.0455C21.2565 20.8346 21.375 20.5484 21.375 20.25V11.25C21.3758 11.0036 21.3276 10.7594 21.2333 10.5317C21.139 10.304 21.0004 10.0972 20.8256 9.92349ZM19.125 19.125H15.375V14.25C15.375 13.9517 15.2565 13.6655 15.0455 13.4546C14.8345 13.2436 14.5484 13.125 14.25 13.125H9.75C9.45163 13.125 9.16548 13.2436 8.95451 13.4546C8.74353 13.6655 8.625 13.9517 8.625 14.25V19.125H4.875V11.4047L12 4.27974L19.125 11.4047V19.125Z" fill="#757575"/>
</svg>
