<svg width="24" height="24" viewBox="0 0 24 24" fill="none" xmlns="http://www.w3.org/2000/svg">
<path d="M12.1992 2.01682C10.2708 2.01682 8.38573 2.58864 6.78235 3.65999C5.17897 4.73133 3.92929 6.25407 3.19134 8.03565C2.45338 9.81723 2.2603 11.7776 2.63651 13.6689C3.01271 15.5603 3.94131 17.2975 5.30487 18.6611C6.66843 20.0247 8.40572 20.9533 10.297 21.3295C12.1883 21.7057 14.1487 21.5126 15.9303 20.7746C17.7119 20.0367 19.2346 18.787 20.306 17.1836C21.3773 15.5802 21.9492 13.6952 21.9492 11.7668C21.9464 9.18179 20.9183 6.70343 19.0904 4.87554C17.2625 3.04765 14.7842 2.01955 12.1992 2.01682ZM17.0348 7.43463L14.0348 13.4346C13.9981 13.5069 13.9393 13.5657 13.867 13.6024L7.86697 16.6024C7.79654 16.6378 7.71674 16.6501 7.63891 16.6376C7.56109 16.625 7.4892 16.5883 7.43346 16.5325C7.37772 16.4768 7.34096 16.4049 7.32841 16.3271C7.31586 16.2492 7.32815 16.1694 7.36354 16.099L10.3635 10.099C10.4003 10.0267 10.459 9.96792 10.5313 9.93119L16.5314 6.93119C16.6018 6.8958 16.6816 6.88351 16.7594 6.89606C16.8372 6.90861 16.9091 6.94537 16.9649 7.00111C17.0206 7.05685 17.0574 7.12874 17.0699 7.20656C17.0825 7.28439 17.0702 7.36419 17.0348 7.43463Z" fill="#1E1E1E"/>
</svg>
