<svg width="24" height="24" viewBox="0 0 24 24" fill="none" xmlns="http://www.w3.org/2000/svg">
<path d="M21.7959 20.2039L17.3437 15.7499C18.6787 14.0103 19.3019 11.8281 19.087 9.64594C18.8722 7.46377 17.8353 5.44503 16.1867 3.99924C14.5382 2.55344 12.4014 1.78886 10.2098 1.86058C8.01829 1.93231 5.93607 2.83497 4.38558 4.38546C2.83509 5.93595 1.93243 8.01817 1.8607 10.2097C1.78898 12.4013 2.55356 14.538 3.99936 16.1866C5.44515 17.8352 7.46389 18.872 9.64606 19.0869C11.8282 19.3018 14.0104 18.6785 15.75 17.3436L20.2059 21.8005C20.3106 21.9051 20.4348 21.9882 20.5715 22.0448C20.7083 22.1014 20.8548 22.1306 21.0028 22.1306C21.1508 22.1306 21.2973 22.1014 21.4341 22.0448C21.5708 21.9882 21.695 21.9051 21.7997 21.8005C21.9043 21.6958 21.9873 21.5716 22.044 21.4349C22.1006 21.2982 22.1298 21.1516 22.1298 21.0036C22.1298 20.8556 22.1006 20.7091 22.044 20.5724C21.9873 20.4356 21.9043 20.3114 21.7997 20.2067L21.7959 20.2039ZM4.12499 10.4999C4.12499 9.23902 4.49888 8.00647 5.19938 6.95811C5.89987 5.90975 6.89551 5.09265 8.06039 4.61014C9.22527 4.12763 10.5071 4.00138 11.7437 4.24737C12.9803 4.49335 14.1162 5.10051 15.0078 5.99207C15.8994 6.88363 16.5065 8.01954 16.7525 9.25617C16.9985 10.4928 16.8722 11.7746 16.3897 12.9395C15.9072 14.1044 15.0901 15.1 14.0418 15.8005C12.9934 16.501 11.7608 16.8749 10.5 16.8749C8.80977 16.8731 7.18927 16.2009 5.99411 15.0058C4.79894 13.8106 4.12673 12.1901 4.12499 10.4999Z" fill="#757575"/>
</svg>
