<svg width="24" height="24" viewBox="0 0 24 24" fill="none" xmlns="http://www.w3.org/2000/svg">
<path d="M12 1.875C9.99747 1.875 8.0399 2.46882 6.37486 3.58137C4.70981 4.69392 3.41206 6.27523 2.64572 8.12533C1.87939 9.97543 1.67888 12.0112 2.06955 13.9753C2.46023 15.9393 3.42454 17.7435 4.84055 19.1595C6.25656 20.5755 8.06066 21.5398 10.0247 21.9305C11.9888 22.3211 14.0246 22.1206 15.8747 21.3543C17.7248 20.5879 19.3061 19.2902 20.4186 17.6251C21.5312 15.9601 22.125 14.0025 22.125 12C22.122 9.3156 21.0543 6.74199 19.1562 4.84383C17.258 2.94567 14.6844 1.87798 12 1.875ZM12 19.875C10.4425 19.875 8.91993 19.4131 7.62489 18.5478C6.32985 17.6825 5.32049 16.4526 4.72445 15.0136C4.12841 13.5747 3.97246 11.9913 4.27632 10.4637C4.58018 8.93606 5.3302 7.53287 6.43154 6.43153C7.53288 5.3302 8.93607 4.58017 10.4637 4.27632C11.9913 3.97246 13.5747 4.12841 15.0136 4.72445C16.4526 5.32049 17.6825 6.32985 18.5478 7.62488C19.4131 8.91992 19.875 10.4425 19.875 12C19.8728 14.0879 19.0424 16.0896 17.566 17.566C16.0896 19.0424 14.0879 19.8728 12 19.875ZM15.3066 7.21875L10.0566 9.46875C9.79119 9.58254 9.57973 9.794 9.46594 10.0594L7.21594 15.3094C7.12896 15.5158 7.10559 15.7436 7.14884 15.9634C7.19209 16.1832 7.29998 16.3851 7.4587 16.5432C7.61742 16.7013 7.81972 16.8084 8.03971 16.8508C8.25969 16.8933 8.48732 16.869 8.69344 16.7812L13.9434 14.5312C14.2088 14.4175 14.4203 14.206 14.5341 13.9406L16.7841 8.69062C16.8711 8.48417 16.8944 8.25645 16.8512 8.03663C16.8079 7.81681 16.7 7.61491 16.5413 7.4568C16.3826 7.29869 16.1803 7.19156 15.9603 7.14915C15.7403 7.10674 15.5127 7.13098 15.3066 7.21875ZM12.6431 12.6459L10.3931 13.6106L11.3578 11.3606L13.6078 10.3959L12.6431 12.6459Z" fill="#757575"/>
</svg>
