<svg width="24" height="24" viewBox="0 0 24 24" fill="none" xmlns="http://www.w3.org/2000/svg">
<path d="M14.625 5.25H5.625C5.12772 5.25 4.65081 5.44754 4.29918 5.79918C3.94754 6.15081 3.75 6.62772 3.75 7.125V21.375C3.74977 21.5821 3.80669 21.7852 3.91449 21.9619C4.02229 22.1387 4.17678 22.2823 4.36096 22.3769C4.54514 22.4715 4.75185 22.5135 4.95834 22.4981C5.16482 22.4828 5.36307 22.4108 5.53125 22.29L10.125 19.0088L14.7188 22.29C14.8869 22.4108 15.0852 22.4828 15.2917 22.4981C15.4981 22.5135 15.7049 22.4715 15.889 22.3769C16.0732 22.2823 16.2277 22.1387 16.3355 21.9619C16.4433 21.7852 16.5002 21.5821 16.5 21.375V7.125C16.5 6.62772 16.3025 6.15081 15.9508 5.79918C15.5992 5.44754 15.1223 5.25 14.625 5.25ZM14.25 19.1888L10.7813 16.7091C10.59 16.5717 10.3605 16.4978 10.125 16.4978C9.88953 16.4978 9.66 16.5717 9.46875 16.7091L6 19.1888V7.5H14.25V19.1888ZM20.25 3.375V17.625C20.25 17.9234 20.1315 18.2095 19.9205 18.4205C19.7095 18.6315 19.4234 18.75 19.125 18.75C18.8266 18.75 18.5405 18.6315 18.3295 18.4205C18.1185 18.2095 18 17.9234 18 17.625V3.75H8.625C8.32663 3.75 8.04048 3.63147 7.82951 3.4205C7.61853 3.20952 7.5 2.92337 7.5 2.625C7.5 2.32663 7.61853 2.04048 7.82951 1.8295C8.04048 1.61853 8.32663 1.5 8.625 1.5H18.375C18.8723 1.5 19.3492 1.69754 19.7008 2.04917C20.0525 2.40081 20.25 2.87772 20.25 3.375Z" fill="#757575"/>
</svg>
