<svg width="32" height="32" viewBox="0 0 32 32" fill="none" xmlns="http://www.w3.org/2000/svg">
<mask id="path-1-inside-1_1493_599" fill="white">
<path d="M19.1553 2.09375C17.9779 -0.69786 14.0221 -0.697847 12.8447 2.09375C12.1165 3.82096 10.1347 4.6419 8.39844 3.93555C5.59166 2.79366 2.79366 5.59166 3.93555 8.39844C4.64191 10.1347 3.82097 12.1165 2.09375 12.8447C-0.697892 14.0221 -0.697889 17.9779 2.09375 19.1553C3.82096 19.8835 4.6419 21.8653 3.93555 23.6016C2.79366 26.4083 5.59166 29.2063 8.39844 28.0645C10.1347 27.3581 12.1165 28.179 12.8447 29.9062C14.0221 32.6979 17.9779 32.6979 19.1553 29.9062C19.8835 28.179 21.8653 27.3581 23.6016 28.0645C26.4083 29.2063 29.2063 26.4083 28.0645 23.6016C27.3581 21.8653 28.179 19.8835 29.9062 19.1553C32.6978 17.9779 32.6978 14.0221 29.9062 12.8447C28.179 12.1165 27.3581 10.1347 28.0645 8.39844C29.2063 5.59167 26.4083 2.79367 23.6016 3.93555C21.8653 4.64192 19.8835 3.82097 19.1553 2.09375Z"/>
</mask>
<path d="M19.1553 2.09375L20.5374 1.51083L20.5374 1.51098L19.1553 2.09375ZM12.8447 2.09375L11.4626 1.51098L11.4626 1.51082L12.8447 2.09375ZM8.39844 3.93555L7.83319 5.32497L7.83318 5.32496L8.39844 3.93555ZM3.93555 8.39844L5.32496 7.83318L5.32497 7.83319L3.93555 8.39844ZM2.09375 12.8447L1.51084 11.4626L1.51098 11.4626L2.09375 12.8447ZM2.09375 19.1553L1.51098 20.5374L1.51084 20.5374L2.09375 19.1553ZM3.93555 23.6016L5.32497 24.1668L5.32496 24.1668L3.93555 23.6016ZM8.39844 28.0645L7.83318 26.675L7.83319 26.675L8.39844 28.0645ZM12.8447 29.9062L11.4626 30.4892L11.4626 30.489L12.8447 29.9062ZM19.1553 29.9062L20.5374 30.489L20.5374 30.4892L19.1553 29.9062ZM23.6016 28.0645L23.0363 29.4539H23.0363L23.6016 28.0645ZM28.0645 23.6016L26.675 24.1668L26.675 24.1668L28.0645 23.6016ZM29.9062 19.1553L30.4892 20.5374L30.489 20.5374L29.9062 19.1553ZM29.9062 12.8447L30.489 11.4626L30.4892 11.4626L29.9062 12.8447ZM28.0645 8.39844L26.675 7.83318L26.675 7.83318L28.0645 8.39844ZM23.6016 3.93555L23.0363 2.54613L23.0363 2.54613L23.6016 3.93555ZM19.1553 2.09375L17.7732 2.67667C17.1115 1.10785 14.8885 1.10783 14.2268 2.67668L12.8447 2.09375L11.4626 1.51082C13.1558 -2.50352 18.8443 -2.50357 20.5374 1.51083L19.1553 2.09375ZM12.8447 2.09375L14.2269 2.67652C13.1797 5.16022 10.33 6.34073 7.83319 5.32497L8.39844 3.93555L8.96368 2.54612C9.93941 2.94307 11.0533 2.4817 11.4626 1.51098L12.8447 2.09375ZM8.39844 3.93555L7.83318 5.32496C6.2558 4.68323 4.68323 6.2558 5.32496 7.83318L3.93555 8.39844L2.54613 8.9637C0.904085 4.92753 4.92753 0.904083 8.9637 2.54613L8.39844 3.93555ZM3.93555 8.39844L5.32497 7.83319C6.34074 10.33 5.16022 13.1797 2.67652 14.2269L2.09375 12.8447L1.51098 11.4626C2.48171 11.0533 2.94308 9.93941 2.54613 8.96369L3.93555 8.39844ZM2.09375 12.8447L2.67666 14.2268C1.10781 14.8885 1.1078 17.1115 2.67666 17.7732L2.09375 19.1553L1.51084 20.5374C-2.50358 18.8443 -2.50359 13.1557 1.51084 11.4626L2.09375 12.8447ZM2.09375 19.1553L2.67652 17.7731C5.16022 18.8203 6.34073 21.67 5.32497 24.1668L3.93555 23.6016L2.54612 23.0363C2.94307 22.0606 2.4817 20.9467 1.51098 20.5374L2.09375 19.1553ZM3.93555 23.6016L5.32496 24.1668C4.68323 25.7442 6.2558 27.3168 7.83318 26.675L8.39844 28.0645L8.9637 29.4539C4.92753 31.0959 0.904083 27.0725 2.54613 23.0363L3.93555 23.6016ZM8.39844 28.0645L7.83319 26.675C10.33 25.6593 13.1797 26.8398 14.2269 29.3235L12.8447 29.9062L11.4626 30.489C11.0533 29.5183 9.93941 29.0569 8.96368 29.4539L8.39844 28.0645ZM12.8447 29.9062L14.2268 29.3233C14.8885 30.8922 17.1115 30.8922 17.7732 29.3233L19.1553 29.9062L20.5374 30.4892C18.8443 34.5036 13.1557 34.5035 11.4626 30.4892L12.8447 29.9062ZM19.1553 29.9062L17.7731 29.3235C18.8203 26.8398 21.67 25.6592 24.1668 26.675L23.6016 28.0645L23.0363 29.4539C22.0606 29.0569 20.9467 29.5183 20.5374 30.489L19.1553 29.9062ZM23.6016 28.0645L24.1668 26.675C25.7442 27.3168 27.3168 25.7442 26.675 24.1668L28.0645 23.6016L29.4539 23.0363C31.0959 27.0725 27.0725 31.0959 23.0363 29.4539L23.6016 28.0645ZM28.0645 23.6016L26.675 24.1668C25.6592 21.67 26.8398 18.8203 29.3235 17.7731L29.9062 19.1553L30.489 20.5374C29.5183 20.9467 29.0569 22.0606 29.4539 23.0363L28.0645 23.6016ZM29.9062 19.1553L29.3233 17.7732C30.8921 17.1115 30.8921 14.8885 29.3233 14.2268L29.9062 12.8447L30.4892 11.4626C34.5035 13.1558 34.5035 18.8442 30.4892 20.5374L29.9062 19.1553ZM29.9062 12.8447L29.3235 14.2269C26.8398 13.1797 25.6592 10.33 26.675 7.83318L28.0645 8.39844L29.4539 8.9637C29.0569 9.93941 29.5183 11.0533 30.489 11.4626L29.9062 12.8447ZM28.0645 8.39844L26.675 7.83318C27.3168 6.25581 25.7442 4.68324 24.1668 5.32497L23.6016 3.93555L23.0363 2.54613C27.0725 0.904099 31.0959 4.92753 29.4539 8.9637L28.0645 8.39844ZM23.6016 3.93555L24.1668 5.32496C21.67 6.34076 18.8203 5.16022 17.7731 2.67652L19.1553 2.09375L20.5374 1.51098C20.9467 2.48172 22.0606 2.94308 23.0363 2.54613L23.6016 3.93555Z" fill="#333333" mask="url(#path-1-inside-1_1493_599)"/>
</svg>
