<svg width="24" height="24" viewBox="0 0 24 24" fill="none" xmlns="http://www.w3.org/2000/svg">
<path d="M15.5306 18.9694C15.6003 19.0391 15.6556 19.1218 15.6933 19.2129C15.731 19.3039 15.7504 19.4015 15.7504 19.5001C15.7504 19.5986 15.731 19.6962 15.6933 19.7872C15.6556 19.8783 15.6003 19.961 15.5306 20.0307C15.4609 20.1004 15.3782 20.1556 15.2872 20.1933C15.1961 20.2311 15.0985 20.2505 15 20.2505C14.9014 20.2505 14.8039 20.2311 14.7128 20.1933C14.6218 20.1556 14.539 20.1004 14.4694 20.0307L6.96935 12.5307C6.89962 12.461 6.8443 12.3783 6.80656 12.2873C6.76882 12.1962 6.74939 12.0986 6.74939 12.0001C6.74939 11.9015 6.76882 11.8039 6.80656 11.7128C6.8443 11.6218 6.89962 11.5391 6.96935 11.4694L14.4694 3.96943C14.6101 3.8287 14.801 3.74963 15 3.74963C15.199 3.74963 15.3899 3.8287 15.5306 3.96943C15.6713 4.11016 15.7504 4.30103 15.7504 4.50005C15.7504 4.69907 15.6713 4.88995 15.5306 5.03068L8.56029 12.0001L15.5306 18.9694Z" fill="#757575"/>
</svg>
