<svg width="24" height="24" viewBox="0 0 24 24" fill="none" xmlns="http://www.w3.org/2000/svg">
<path d="M17.0307 12.5307L9.53068 20.0307C9.46099 20.1004 9.37827 20.1556 9.28722 20.1933C9.19618 20.2311 9.0986 20.2505 9.00005 20.2505C8.9015 20.2505 8.80392 20.2311 8.71288 20.1933C8.62183 20.1556 8.53911 20.1004 8.46943 20.0307C8.39974 19.961 8.34447 19.8783 8.30676 19.7872C8.26904 19.6962 8.24963 19.5986 8.24963 19.5001C8.24963 19.4015 8.26904 19.3039 8.30676 19.2129C8.34447 19.1218 8.39974 19.0391 8.46943 18.9694L15.4397 12.0001L8.46943 5.03068C8.32869 4.88995 8.24963 4.69907 8.24963 4.50005C8.24963 4.30103 8.32869 4.11016 8.46943 3.96943C8.61016 3.8287 8.80103 3.74963 9.00005 3.74963C9.19907 3.74963 9.38995 3.8287 9.53068 3.96943L17.0307 11.4694C17.1004 11.5391 17.1557 11.6218 17.1935 11.7128C17.2312 11.8039 17.2506 11.9015 17.2506 12.0001C17.2506 12.0986 17.2312 12.1962 17.1935 12.2873C17.1557 12.3783 17.1004 12.461 17.0307 12.5307Z" fill="#757575"/>
</svg>
