<svg width="64" height="64" viewBox="0 0 64 64" fill="none" xmlns="http://www.w3.org/2000/svg">
<path d="M49.2225 32.735L36.1 27.9L31.265 14.7775C31.0188 14.1098 30.5737 13.5337 29.9899 13.1268C29.4061 12.7199 28.7116 12.5017 28 12.5017C27.2884 12.5017 26.5939 12.7199 26.0101 13.1268C25.4263 13.5337 24.9813 14.1098 24.735 14.7775L19.9 27.9L6.7775 32.735C6.10984 32.9813 5.53373 33.4263 5.12681 34.0101C4.71989 34.5939 4.50173 35.2884 4.50173 36C4.50173 36.7116 4.71989 37.4061 5.12681 37.9899C5.53373 38.5737 6.10984 39.0188 6.7775 39.265L19.9 44.1L24.735 57.2225C24.9813 57.8902 25.4263 58.4663 26.0101 58.8732C26.5939 59.2801 27.2884 59.4983 28 59.4983C28.7116 59.4983 29.4061 59.2801 29.9899 58.8732C30.5737 58.4663 31.0188 57.8902 31.265 57.2225L36.1 44.1L49.2225 39.265C49.8902 39.0188 50.4663 38.5737 50.8732 37.9899C51.2801 37.4061 51.4983 36.7116 51.4983 36C51.4983 35.2884 51.2801 34.5939 50.8732 34.0101C50.4663 33.4263 49.8902 32.9813 49.2225 32.735ZM48.185 36.45L34.415 41.525C34.211 41.6 34.0258 41.7185 33.8721 41.8721C33.7185 42.0258 33.6 42.211 33.525 42.415L28.45 56.185C28.4159 56.2769 28.3545 56.3561 28.2741 56.412C28.1936 56.468 28.098 56.498 28 56.498C27.902 56.498 27.8064 56.468 27.7259 56.412C27.6455 56.3561 27.5841 56.2769 27.55 56.185L22.475 42.415C22.4 42.211 22.2815 42.0258 22.1279 41.8721C21.9742 41.7185 21.789 41.6 21.585 41.525L7.815 36.45C7.72314 36.4159 7.64391 36.3545 7.58797 36.2741C7.53202 36.1936 7.50203 36.098 7.50203 36C7.50203 35.902 7.53202 35.8064 7.58797 35.7259C7.64391 35.6455 7.72314 35.5841 7.815 35.55L21.585 30.475C21.789 30.4 21.9742 30.2815 22.1279 30.1279C22.2815 29.9742 22.4 29.789 22.475 29.585L27.55 15.815C27.5841 15.7231 27.6455 15.6439 27.7259 15.588C27.8064 15.532 27.902 15.502 28 15.502C28.098 15.502 28.1936 15.532 28.2741 15.588C28.3545 15.6439 28.4159 15.7231 28.45 15.815L33.525 29.585C33.6 29.789 33.7185 29.9742 33.8721 30.1279C34.0258 30.2815 34.211 30.4 34.415 30.475L48.185 35.55C48.2769 35.5841 48.3561 35.6455 48.412 35.7259C48.468 35.8064 48.498 35.902 48.498 36C48.498 36.098 48.468 36.1936 48.412 36.2741C48.3561 36.3545 48.2769 36.4159 48.185 36.45ZM36.5 10C36.5 9.60218 36.658 9.22064 36.9393 8.93934C37.2206 8.65804 37.6022 8.5 38 8.5H42.5V4C42.5 3.60218 42.658 3.22064 42.9393 2.93934C43.2206 2.65804 43.6022 2.5 44 2.5C44.3978 2.5 44.7794 2.65804 45.0607 2.93934C45.342 3.22064 45.5 3.60218 45.5 4V8.5H50C50.3978 8.5 50.7794 8.65804 51.0607 8.93934C51.342 9.22064 51.5 9.60218 51.5 10C51.5 10.3978 51.342 10.7794 51.0607 11.0607C50.7794 11.342 50.3978 11.5 50 11.5H45.5V16C45.5 16.3978 45.342 16.7794 45.0607 17.0607C44.7794 17.342 44.3978 17.5 44 17.5C43.6022 17.5 43.2206 17.342 42.9393 17.0607C42.658 16.7794 42.5 16.3978 42.5 16V11.5H38C37.6022 11.5 37.2206 11.342 36.9393 11.0607C36.658 10.7794 36.5 10.3978 36.5 10ZM61.5 22C61.5 22.3978 61.342 22.7794 61.0607 23.0607C60.7794 23.342 60.3978 23.5 60 23.5H57.5V26C57.5 26.3978 57.342 26.7794 57.0607 27.0607C56.7794 27.342 56.3978 27.5 56 27.5C55.6022 27.5 55.2206 27.342 54.9393 27.0607C54.658 26.7794 54.5 26.3978 54.5 26V23.5H52C51.6022 23.5 51.2206 23.342 50.9393 23.0607C50.658 22.7794 50.5 22.3978 50.5 22C50.5 21.6022 50.658 21.2206 50.9393 20.9393C51.2206 20.658 51.6022 20.5 52 20.5H54.5V18C54.5 17.6022 54.658 17.2206 54.9393 16.9393C55.2206 16.658 55.6022 16.5 56 16.5C56.3978 16.5 56.7794 16.658 57.0607 16.9393C57.342 17.2206 57.5 17.6022 57.5 18V20.5H60C60.3978 20.5 60.7794 20.658 61.0607 20.9393C61.342 21.2206 61.5 21.6022 61.5 22Z" fill="#707070"/>
</svg>
