<svg width="397" height="561" viewBox="0 0 397 561" fill="none" xmlns="http://www.w3.org/2000/svg">
<path d="M388.5 561H8.5C6.24646 560.997 4.08596 560.101 2.49246 558.508C0.898965 556.914 0.00259636 554.754 0 552.5V8.5C0.00251448 6.24643 0.898856 4.08589 2.49237 2.49237C4.08589 0.898856 6.24643 0.00251448 8.5 0H388.5C390.754 0.00251712 392.914 0.898857 394.508 2.49237C396.101 4.08588 396.997 6.24643 397 8.5V552.5C396.997 554.754 396.101 556.914 394.508 558.508C392.914 560.101 390.754 560.997 388.5 561Z" fill="#B9B9B9"/>
<path d="M380.5 553H16.5C14.2465 552.997 12.086 552.101 10.4925 550.508C8.89897 548.914 8.0026 546.754 8 544.5V16.5C8.00251 14.2464 8.89886 12.0859 10.4924 10.4924C12.0859 8.89886 14.2464 8.00251 16.5 8H380.5C382.754 8.00252 384.914 8.89886 386.508 10.4924C388.101 12.0859 388.997 14.2464 389 16.5V544.5C388.997 546.754 388.101 548.914 386.508 550.508C384.914 552.101 382.754 552.997 380.5 553Z" fill="white"/>
<path d="M116.067 525.314C83.687 482.57 96.5281 433.785 77.5576 399.751C4.8511 269.312 94.3792 281.329 195.6 306.696L195.841 309.51C131.418 319.452 89.0496 352.608 79.5995 400.476C72.2549 437.677 85.7323 481.296 117.549 523.297L116.067 525.314Z" fill="#F0F0F0"/>
<path d="M187.195 366.235L186.519 363.552C222.662 347.166 219.557 298.357 251.894 287.212C498.228 202.308 255.069 192.733 200.376 147.823C151.465 107.662 98.1616 60.9692 30.4187 36.9212L30.959 34.1833C98.9979 58.3372 159.649 97.9273 201.739 145.661C244.041 193.634 262.578 244.162 253.936 287.936C247.121 322.455 224.042 349.53 187.195 366.235Z" fill="#F0F0F0"/>
<path d="M88.8073 272.163C72.2902 270.858 91.7801 259.928 93.0849 243.411C93.3935 239.482 94.4731 235.653 96.262 232.141C98.051 228.63 100.514 225.506 103.511 222.946C106.508 220.387 109.979 218.444 113.727 217.227C117.476 216.01 121.427 215.543 125.355 215.853C129.284 216.164 133.113 217.245 136.623 219.035C140.134 220.826 143.257 223.29 145.815 226.288C148.373 229.286 150.315 232.759 151.53 236.507C152.746 240.256 153.211 244.207 152.899 248.136C151.594 264.653 105.324 273.468 88.8073 272.163Z" fill="#B9B9B9"/>
<path d="M247.398 169.333C243.47 169.023 239.643 167.942 236.133 166.152C232.623 164.363 229.5 161.899 226.942 158.903C224.385 155.906 222.442 152.435 221.226 148.688C220.01 144.941 219.543 140.991 219.854 137.064C221.158 120.546 188.358 109.498 204.875 110.802C221.392 112.107 280.972 125.272 279.667 141.789C279.357 145.716 278.276 149.544 276.487 153.054C274.697 156.563 272.234 159.686 269.237 162.244C266.241 164.802 262.77 166.744 259.023 167.96C255.275 169.177 251.325 169.643 247.398 169.333Z" fill="#B9B9B9"/>
<path d="M283.55 131.682C285.726 136.198 284.443 141.415 281.568 145.314C278.299 149.748 273.098 151.934 267.763 152.656C262.036 153.351 256.228 152.873 250.692 151.251C245.352 149.709 239.81 146.406 238.708 140.504C237.974 136.571 239.652 132.373 243.737 131.283C245.375 130.869 247.093 130.883 248.724 131.326C250.355 131.768 251.844 132.624 253.048 133.809C256.44 137.339 256.182 143.005 254.026 147.105C251.491 151.928 246.418 154.589 241.203 155.467C235.002 156.511 228.771 155.053 222.938 152.978C216.598 150.722 210.447 147.914 204.235 145.334C192.12 140.303 179.745 135.577 166.717 133.573C146.816 130.513 123.197 135.279 111.014 152.727C104.437 162.145 102.574 173.958 103.99 185.195C105.482 197.045 110.682 207.935 117.568 217.579C121.213 222.595 125.194 227.359 129.483 231.838C130.879 233.195 131.84 234.937 132.244 236.843C132.648 238.748 132.476 240.73 131.75 242.537C127.976 251.81 112.886 248.855 111.761 239.296C111.251 234.952 113.674 230.479 116.702 227.533C120.138 224.319 124.468 222.222 129.12 221.517C138.911 219.882 149.262 223.512 156.747 229.818C165.202 236.943 169.963 247.769 172.47 258.308C175.325 270.308 175.47 282.649 175.742 294.915C176.019 307.466 176.496 320.167 180.097 332.282C183.026 342.033 187.547 351.232 193.477 359.508C205.32 376.182 222.158 388.659 241.556 395.138C246.248 396.661 251.06 397.788 255.941 398.508C257.851 398.791 258.079 395.799 256.177 395.517C234.903 392.363 215.339 380.844 201.334 364.653C194.315 356.576 188.768 347.33 184.945 337.335C180.378 325.297 179.22 312.51 178.847 299.734C178.466 286.685 178.673 273.519 176.061 260.665C173.751 249.301 169.221 237.795 160.832 229.515C153.434 222.215 142.851 217.698 132.392 218.183C122.66 218.634 112.254 223.994 109.362 233.923C108.005 238.582 108.869 243.584 112.426 247.045C114.454 248.969 116.975 250.293 119.71 250.871C122.444 251.449 125.286 251.258 127.919 250.319C130.779 249.082 133.077 246.824 134.365 243.986C135.653 241.148 135.839 237.932 134.887 234.965C134.087 232.786 132.8 230.818 131.125 229.21C122.346 219.834 114.289 209.342 109.917 197.133C105.839 185.746 105.003 172.647 109.706 161.316C118.609 139.866 144.447 133.42 165.495 136.418C179.269 138.38 192.311 143.595 205.07 148.93C211.585 151.654 218.059 154.681 224.816 156.766C230.866 158.633 237.358 159.57 243.591 158.039C249.031 156.703 254.031 153.54 256.667 148.48C259.06 143.883 259.473 138.051 256.627 133.548C252.511 127.038 241.146 125.573 237.005 132.886C234.257 137.738 235.607 143.95 239.216 147.974C243.262 152.486 249.321 154.329 255.12 155.259C266.077 157.016 279.569 155.635 285.431 144.812C287.846 140.354 288.498 135.038 286.251 130.377C286.07 130.033 285.762 129.772 285.392 129.65C285.023 129.528 284.62 129.555 284.27 129.724C283.919 129.894 283.648 130.193 283.514 130.558C283.38 130.923 283.392 131.326 283.55 131.682Z" fill="#585858"/>
<path d="M248.305 399.118C230.789 397.734 183.956 421.701 171.279 411.39C169.695 410.112 168.162 408.77 166.682 407.366C161.834 402.82 157.553 397.706 153.932 392.134C153.304 391.192 152.707 390.242 152.131 389.284C150.099 385.879 148.311 382.336 146.779 378.679C146.51 378.016 146.243 377.343 145.975 376.67C138.84 358.232 138.479 337.861 144.955 319.182C151.431 300.503 164.324 284.727 181.34 274.662C198.356 264.597 218.391 260.895 237.88 264.216C257.369 267.536 275.048 277.664 287.77 292.796C288.45 293.592 289.108 294.406 289.754 295.24C296.212 303.511 301.047 312.929 304.002 322.998C304.002 323.008 304.012 323.009 304.011 323.019C308.419 338.117 308.491 354.151 304.218 369.289L304.216 369.309C304.119 369.642 304.023 369.976 303.916 370.308C292.977 407.332 288.33 402.28 248.305 399.118Z" fill="#B9B9B9"/>
<path d="M147.157 378.719C147.03 378.721 146.903 378.708 146.779 378.679C146.51 378.016 146.243 377.343 145.975 376.67C146.088 376.387 146.284 376.146 146.538 375.978C146.791 375.81 147.089 375.723 147.393 375.728C148.909 375.723 150.42 375.55 151.898 375.212C164.726 372.313 172.204 359.181 175.407 347.457C179.339 333.112 179.393 317.698 186.499 304.316C189.26 298.817 193.318 294.073 198.324 290.495C203.82 286.77 210.499 285.208 217.078 286.108C232.555 288.153 243.851 300.07 258.219 304.976C264.139 306.999 270.439 307.497 276.358 305.196C281.388 303.246 285.975 299.395 287.014 293.86C287.049 293.636 287.135 293.423 287.266 293.238C287.397 293.053 287.57 292.902 287.77 292.796C288.45 293.592 289.108 294.406 289.754 295.24C289.523 296.239 289.187 297.211 288.753 298.14C286.228 303.437 281.192 306.861 275.71 308.575C269.365 310.552 262.764 309.799 256.589 307.586C242.19 302.426 230.348 289.674 214.451 288.88C200.672 288.192 191.151 299.518 186.566 311.333C180.897 325.952 181.739 342.34 175.375 356.743C170.367 368.074 160.332 378.667 147.157 378.719Z" fill="#585858"/>
<path d="M153.932 392.134C153.304 391.192 152.707 390.242 152.13 389.284C152.27 389.172 152.432 389.092 152.605 389.049C152.778 389.005 152.958 389 153.133 389.032C165.99 390.549 178.94 387.097 189.336 379.383C193.897 376.047 197.862 371.965 201.063 367.309C204.387 362.436 206.395 356.957 208.648 351.547C210.864 346.225 213.466 340.843 217.873 336.989C222.366 333.06 228.164 331.412 234.036 331.234C247.952 330.818 260.087 338.728 273.631 340.36C279.672 341.088 285.669 340.218 290.841 336.844C295.305 333.927 298.554 329.359 298.346 323.875C298.268 322.063 300.907 322.182 301.292 323.777C301.319 323.887 301.334 323.999 301.336 324.111C301.575 330.49 297.653 335.948 292.491 339.322C286.493 343.252 279.485 344.223 272.471 343.228C258.901 341.293 246.359 333.08 232.318 334.318C229.372 334.488 226.494 335.275 223.871 336.628C221.248 337.981 218.939 339.871 217.092 342.173C213.397 346.917 211.445 352.711 209.165 358.209C207.001 363.703 203.976 368.817 200.204 373.36C196.386 377.795 191.883 381.591 186.867 384.605C176.999 390.628 165.437 393.271 153.932 392.134Z" fill="#585858"/>
<path d="M171.279 411.39C169.695 410.112 168.162 408.77 166.682 407.366C174.321 409.311 182.283 409.642 190.058 408.34C199.84 406.771 209.069 402.759 216.889 396.677C220.784 393.627 224.22 390.034 227.091 386.007C230.364 381.4 233.224 376.31 238.16 373.259C248.874 366.642 261.698 372.691 272.395 375.943C277.978 377.648 283.975 378.804 289.662 376.916C294.071 375.449 298.35 372.196 299.222 367.389C299.561 365.5 302.563 365.727 302.212 367.626C302.144 367.981 302.066 368.336 301.978 368.691C300.602 373.908 296.333 377.674 291.293 379.503C284.716 381.872 277.902 380.762 271.369 378.771C260.623 375.495 246.58 368.758 236.858 378.051C232.757 381.971 230.241 387.279 226.542 391.561C223.243 395.399 219.437 398.77 215.228 401.581C202.303 410.19 186.638 413.687 171.279 411.39Z" fill="#585858"/>
</svg>
